<?xml version="1.0" encoding="UTF-8" standalone="no"?>
<!DOCTYPE svg PUBLIC "-//W3C//DTD SVG 1.1//EN" "http://www.w3.org/Graphics/SVG/1.1/DTD/svg11.dtd">
<svg version="1.1" xmlns="http://www.w3.org/2000/svg" xmlns:xlink="http://www.w3.org/1999/xlink" preserveAspectRatio="xMidYMid meet" viewBox="93.85590087461435 163.80282362258515 87.78662183605786 61.34675125666786" width="83.79" height="57.35"><defs><path d="" id="c1qGzPvSM3"></path><path d="M94.86 164.8L100.41 164.8L128.42 212.85L125.64 217.32L94.86 164.8Z" id="aFcGpwT3I"></path><path d="M105.72 164.8L111.03 164.8L133.73 203.8L131.07 208.27L105.72 164.8Z" id="arEX1hRWu"></path><path d="M116.35 164.8L121.54 164.8L139.04 194.62L136.44 199.09L116.35 164.8Z" id="bGcwgMwvc"></path><path d="M151.84 181.22L157.51 181.22L133.73 222.15L128.42 222.15L151.84 181.22Z" id="daxi7PZ8S"></path><path d="M162.59 181.22L167.9 181.22L144.36 222.15L139.04 222.15L162.59 181.22Z" id="aIn9nNjvZ"></path><path d="M173.09 181.22L178.64 181.22L154.98 222.15L149.67 222.15L173.09 181.22Z" id="b80wRtP1zm"></path></defs><g><g></g><g><use xlink:href="#aFcGpwT3I" opacity="1" fill="#C80000" fill-opacity="1"></use></g><g><use xlink:href="#arEX1hRWu" opacity="1" fill="#C80000" fill-opacity="1"></use></g><g><use xlink:href="#bGcwgMwvc" opacity="1" fill="#C80000" fill-opacity="1"></use></g><g><use xlink:href="#daxi7PZ8S" opacity="1" fill="#ffffff" fill-opacity="1"></use></g><g><use xlink:href="#aIn9nNjvZ" opacity="1" fill="#ffffff" fill-opacity="1"></use></g><g><use xlink:href="#b80wRtP1zm" opacity="1" fill="#ffffff" fill-opacity="1"></use></g></g></svg>